<svg width="60.000000" height="60.000000" viewBox="0 0 60 60" fill="none" xmlns="http://www.w3.org/2000/svg" xmlns:xlink="http://www.w3.org/1999/xlink">
	<desc>
			Created with Pixso.
	</desc>
	<defs/>
	<rect id="Rectangle 4" rx="12.000000" width="60.000000" height="60.000000" fill="#EEF2FF" fill-opacity="1.000000"/>
	<path id="G" d="M34.6475 26.1367L38.4072 26.1367C37.7852 22.1445 34.3193 19.3555 29.8213 19.3555C24.4893 19.3555 20.4902 23.2725 20.4902 29.835C20.4902 36.2812 24.3115 40.2803 29.9307 40.2803C34.9688 40.2803 38.5781 37.04 38.5781 31.79L38.5781 29.3428L30.3135 29.3428L30.3135 32.2275L35.0098 32.2275C34.9482 35.126 33.0068 36.9648 29.9443 36.9648C26.54 36.9648 24.2021 34.415 24.2021 29.8008C24.2021 25.2139 26.5742 22.6709 29.8691 22.6709C32.3232 22.6709 33.9912 23.9834 34.6475 26.1367Z" fill="#4F46E5" fill-opacity="1.000000" fill-rule="evenodd"/>
</svg>
